<svg width="125" height="14" viewBox="0 0 125 14" fill="none" xmlns="http://www.w3.org/2000/svg">
<path d="M102.853 6.38059L104.275 7.99674L106.93 9.06859L108.171 10.2738C108.171 10.2738 108.399 10.9817 108.791 11.5266C109.183 12.0714 110.338 12.4834 110.338 12.4834L112.515 12.8668L114.996 12.3516L117.25 12.7545L120.595 12.0487L120.614 12.0233L122.18 9.92823L122.334 8.34124C122.334 8.34124 121.982 6.34333 122.221 5.5501C122.461 4.75688 121.773 3.93395 121.773 3.93395L119.873 3.90426C119.873 3.90426 117.723 4.54358 117.122 4.83949C116.52 5.1354 111.93 2.56188 111.93 2.56188L111.832 2.51867C111.494 2.37342 110.353 1.90094 109.524 1.79565C108.54 1.67091 104.156 3.13101 104.156 3.13101L103.114 4.53494L102.853 6.38059Z" fill="#EFEFEF"/>
<path d="M102.854 6.38059L104.276 7.99674L106.931 9.06859L108.171 10.2738C108.171 10.2738 108.4 10.9812 108.792 11.5266C109.184 12.0719 110.338 12.4834 110.338 12.4834L112.515 12.8668L114.997 12.3516L117.251 12.7545L120.595 12.0487L120.614 12.0233L119.03 11.4942L118.075 10.1167L116.996 8.74892L114.656 8.52807L111.581 7.83798C111.581 7.83798 111.983 6.88223 111.573 5.11381C111.361 4.19585 111.573 3.23361 111.83 2.51868C111.492 2.37288 110.351 1.9004 109.522 1.79565C108.538 1.67091 104.154 3.13047 104.154 3.13047L103.112 4.53441L102.854 6.38059Z" fill="url(#paint0_linear_5893_940)"/>
<path d="M114.641 7.33724L115.47 7.1801L117.097 6.8869L119.873 3.90137C119.873 3.90137 117.723 4.5407 117.122 4.8366C117.122 4.8366 116.79 5.07204 116.66 5.83178C116.534 6.58019 114.702 7.31294 114.641 7.33724Z" fill="url(#paint1_linear_5893_940)"/>
<path d="M116.997 8.74683L110.572 9.50604C110.572 9.50604 110.032 9.74956 109.435 10.6351C108.837 11.5207 108.778 10.1086 108.778 10.1086L109.49 8.97146L111.582 7.83751L112.815 7.50488L114.248 8.01246L116.997 8.74683Z" fill="url(#paint2_linear_5893_940)"/>
<path d="M108.425 0.701172L109.522 1.7957C109.522 1.7957 108.774 3.66024 109.429 4.97346C110.085 6.28669 111.279 7.6512 111.279 7.6512L112.514 9.68746L114.162 12.1093L114.761 12.8479L110.997 12.3004L107.267 6.72676L106.14 3.52957L108.425 0.701172Z" fill="url(#paint3_linear_5893_940)"/>
<path d="M3.92127 13.6717L26.6158 13.7392H26.9476L30.732 13.7506L32.0844 13.7543H32.9643L113.644 14L114.761 12.8515C112.795 11.9206 111.934 10.5264 111.56 9.41618C111.223 8.41992 111.279 7.651 111.279 7.651C109.02 6.50355 108.437 4.27506 108.336 2.65082C108.292 2.00031 108.322 1.34686 108.425 0.703125L30.5254 1.50499L29.5063 1.51579L28.8875 1.52173L27.3392 1.53739L23.9664 1.57249L23.4615 1.57788L4.54005 1.77228C0.839806 2.27176 0.891052 7.22604 0.891052 7.22604C0.94931 11.7554 3.92127 13.6717 3.92127 13.6717Z" fill="#F7FCF5"/>
<path d="M26.9481 13.7392L30.732 13.751L32.0844 13.7548H32.9638L113.644 13.9994L114.761 12.8509C112.795 11.92 111.934 10.529 111.56 9.41558C104.254 10.0317 63.322 13.3444 46.0994 11.7656C36.281 10.8643 31.6696 5.99645 29.5042 1.51465L28.8854 1.52113L27.3365 1.53732L26.9481 13.7392Z" fill="url(#paint4_linear_5893_940)"/>
<path d="M34.3617 5.65006C53.7482 0.914464 96.4113 2.18341 108.336 2.64887C108.291 1.99836 108.321 1.34491 108.425 0.701172L30.525 1.50304L29.5059 1.51384L28.8871 1.51978L27.3389 1.53544L23.9661 1.57053L23.4611 1.57594C21.1225 5.18946 21.0297 8.90773 34.3617 5.65006Z" fill="url(#paint5_linear_5893_940)"/>
<path d="M26.6144 13.739L30.7311 13.7514L32.0835 13.7552H32.9629C28.6644 7.7107 29.821 2.68028 30.5223 1.50098L28.8845 1.51771L23.9634 1.56847L24.0503 5.36018L26.6144 13.739Z" fill="#8F6546"/>
<path d="M3.32182 13.1774C3.50711 13.3586 3.70744 13.5237 3.92064 13.6709L30.7324 13.7514C29.3902 11.8815 28.5794 10.1876 28.143 8.67563C27.2199 5.48329 27.9584 3.08904 28.8874 1.52148L4.53995 1.77257C0.83971 2.27205 0.890411 7.22633 0.890411 7.22633C0.930872 10.4495 2.45003 12.3502 3.32182 13.1774Z" fill="#C89048"/>
<path d="M0.887749 7.22417C0.930906 10.4505 2.45222 12.3539 3.32186 13.1785C3.73509 10.5175 5.68421 7.90994 11.0228 6.59564C19.4925 4.50971 25.1365 6.74845 28.1403 8.67563C27.2173 5.48329 27.9558 3.08904 28.8848 1.52148L4.53729 1.77257C0.837048 2.27205 0.887749 7.22417 0.887749 7.22417Z" fill="url(#paint6_linear_5893_940)"/>
<path d="M7.3902 11.812C7.7387 11.5927 7.92968 11.185 7.81747 10.9016C7.70526 10.6181 7.33194 10.5657 6.98398 10.7849C6.63602 11.0041 6.44451 11.4118 6.55672 11.6953C6.66893 11.9788 7.04224 12.0312 7.3902 11.812Z" fill="url(#paint7_linear_5893_940)"/>
<path d="M14.525 11.7289C14.873 11.5097 15.0645 11.102 14.9523 10.8185C14.8401 10.5351 14.4668 10.4827 14.1188 10.7019C13.7708 10.9211 13.5793 11.3288 13.6915 11.6129C13.8037 11.8969 14.1781 11.9482 14.525 11.7289Z" fill="url(#paint8_linear_5893_940)"/>
<path d="M11.4899 9.45453C11.8378 9.2353 12.0293 8.82762 11.9171 8.54413C11.8049 8.26064 11.4316 8.20827 11.0831 8.4275C10.7346 8.64673 10.5436 9.05441 10.6558 9.33844C10.768 9.62247 11.1414 9.6743 11.4899 9.45453Z" fill="url(#paint9_linear_5893_940)"/>
<path d="M21.0094 11.2451C21.3574 11.0253 21.5489 10.6177 21.4367 10.3342C21.3245 10.0507 20.9511 9.99831 20.6026 10.2175C20.2541 10.4368 20.0632 10.8444 20.1754 11.1285C20.2876 11.4125 20.6609 11.4611 21.0094 11.2451Z" fill="url(#paint10_linear_5893_940)"/>
<path d="M17.9733 8.96776C18.3212 8.74853 18.5127 8.34031 18.4005 8.05682C18.2883 7.77334 17.915 7.72096 17.5665 7.94019C17.218 8.15942 17.027 8.56765 17.1392 8.85113C17.2514 9.13462 17.6248 9.18699 17.9733 8.96776Z" fill="url(#paint11_linear_5893_940)"/>
<path d="M122.115 5.29492C122.115 5.29492 122.137 7.94566 120.835 8.64763C120.046 9.07199 119.195 9.37093 118.314 9.53374L116.437 9.40576L113.844 11.1877L116.062 11.8897L117.573 12.4804L119.507 12.1818L122.099 9.06017C122.099 9.06017 123.108 7.43701 122.649 5.75444L122.115 5.29492Z" fill="url(#paint12_linear_5893_940)"/>
<path d="M119.874 3.90462L118.699 6.73625L119.705 8.05865L120.826 8.91992L122.221 8.15477L122.935 6.37123L123.926 5.70544L124.597 4.80314L124.823 3.45482L124.609 3.15567L123.707 3.01906L122.748 2.66699L121.72 3.21183L121.411 3.82579L120.436 3.44726L119.874 3.90462Z" fill="url(#paint13_linear_5893_940)"/>
<defs>
<linearGradient id="paint0_linear_5893_940" x1="97.962" y1="12.329" x2="122.485" y2="4.26764" gradientUnits="userSpaceOnUse">
<stop stop-color="#EAEAEA"/>
<stop offset="0.51" stop-color="#CECECE"/>
<stop offset="1" stop-color="#84848A"/>
</linearGradient>
<linearGradient id="paint1_linear_5893_940" x1="111.958" y1="7.52574" x2="121.764" y2="4.30207" gradientUnits="userSpaceOnUse">
<stop stop-color="#EAEAEA"/>
<stop offset="0.51" stop-color="#CECECE"/>
<stop offset="1" stop-color="#84848A"/>
</linearGradient>
<linearGradient id="paint2_linear_5893_940" x1="116.131" y1="10.3619" x2="108.954" y2="8.77769" gradientUnits="userSpaceOnUse">
<stop stop-color="#EAEAEA"/>
<stop offset="0.51" stop-color="#CECECE"/>
<stop offset="1" stop-color="#84848A"/>
</linearGradient>
<linearGradient id="paint3_linear_5893_940" x1="112.25" y1="6.3698" x2="108.415" y2="8.6658" gradientUnits="userSpaceOnUse">
<stop stop-color="#494949"/>
<stop offset="1" stop-color="#84848A"/>
</linearGradient>
<linearGradient id="paint4_linear_5893_940" x1="65.4135" y1="-9.96562" x2="84.9421" y2="73.448" gradientUnits="userSpaceOnUse">
<stop stop-color="#EAEAEA"/>
<stop offset="0.51" stop-color="#CECECE"/>
<stop offset="1" stop-color="#84848A"/>
</linearGradient>
<linearGradient id="paint5_linear_5893_940" x1="102.328" y1="2.46601" x2="1.09003" y2="4.77241" gradientUnits="userSpaceOnUse">
<stop stop-color="#EAEAEA"/>
<stop offset="0.51" stop-color="#CECECE"/>
<stop offset="1" stop-color="#84848A"/>
</linearGradient>
<linearGradient id="paint6_linear_5893_940" x1="27.9903" y1="-0.364439" x2="2.11477" y2="11.8058" gradientUnits="userSpaceOnUse">
<stop stop-color="#DDAA72"/>
<stop offset="1" stop-color="#C89048"/>
</linearGradient>
<linearGradient id="paint7_linear_5893_940" x1="6.58197" y1="12.2159" x2="7.6898" y2="10.5881" gradientUnits="userSpaceOnUse">
<stop stop-color="#DDAA72"/>
<stop offset="1" stop-color="#C89048"/>
</linearGradient>
<linearGradient id="paint8_linear_5893_940" x1="13.716" y1="12.1326" x2="14.8238" y2="10.5049" gradientUnits="userSpaceOnUse">
<stop stop-color="#DDAA72"/>
<stop offset="1" stop-color="#C89048"/>
</linearGradient>
<linearGradient id="paint9_linear_5893_940" x1="10.6812" y1="9.85868" x2="11.7891" y2="8.23095" gradientUnits="userSpaceOnUse">
<stop stop-color="#DDAA72"/>
<stop offset="1" stop-color="#C89048"/>
</linearGradient>
<linearGradient id="paint10_linear_5893_940" x1="20.2" y1="11.6463" x2="21.3083" y2="10.0183" gradientUnits="userSpaceOnUse">
<stop stop-color="#DDAA72"/>
<stop offset="1" stop-color="#C89048"/>
</linearGradient>
<linearGradient id="paint11_linear_5893_940" x1="17.1643" y1="9.37155" x2="18.2721" y2="7.74382" gradientUnits="userSpaceOnUse">
<stop stop-color="#DDAA72"/>
<stop offset="1" stop-color="#C89048"/>
</linearGradient>
<linearGradient id="paint12_linear_5893_940" x1="123.465" y1="7.13796" x2="114.587" y2="12.4525" gradientUnits="userSpaceOnUse">
<stop stop-color="#494949"/>
<stop offset="1" stop-color="#84848A"/>
</linearGradient>
<linearGradient id="paint13_linear_5893_940" x1="128.567" y1="-0.528114" x2="114.694" y2="11.5202" gradientUnits="userSpaceOnUse">
<stop stop-color="#871515"/>
<stop offset="0.61" stop-color="#494949"/>
<stop offset="1" stop-color="#84848A"/>
</linearGradient>
</defs>
</svg>
