<svg width="776" height="236" viewBox="0 0 776 236" fill="none" xmlns="http://www.w3.org/2000/svg">
<path d="M693.744 234.913C679.426 235.318 665.456 235.636 651.139 234.421C636.619 233.177 622.186 231.008 607.753 228.983C593.175 226.93 578.569 225.05 563.875 224.066C547.649 222.996 531.336 222.88 515.081 222.186C452.229 219.554 389.117 215.187 327.017 204.919C300.32 200.493 273.392 195.316 247.592 187.072C224.974 179.841 203.02 170.21 182.166 158.814C144.623 138.278 104.071 110.164 88.3368 68.6C86.8906 64.7531 87.3245 64.0011 89.8409 67.9926C113.645 105.97 153.502 129.282 194.95 144.034C229.977 156.5 266.711 163.152 303.502 167.751C333.38 171.454 363.288 175.04 393.34 176.804C425.706 178.713 458.043 177.643 490.322 174.577C544.612 169.429 597.08 156.76 648.478 138.741C679.889 127.721 715.35 114.068 747.484 130.41C769.582 141.633 781.297 166.797 773.458 190.63C762.727 223.285 724.432 234.016 693.773 234.884L693.744 234.913Z" fill="#53515E"/>
<path d="M693.744 234.912C689.897 235.028 686.079 235.115 682.29 235.202C695.19 234.045 712.949 230.198 728.655 223.256C777.941 201.505 770.913 138.278 717.317 137.005C695.277 136.484 670.026 145.566 654.523 150.541C573.044 176.718 527.316 184.903 497.524 186.841C437.998 190.717 378.415 185.829 319.352 178.279C280.855 173.362 242.473 165.408 205.942 152.161C179.621 142.616 153.242 129.716 131.434 111.639C150.639 125.58 172.563 136.079 194.979 144.062C230.006 156.529 266.74 163.181 303.531 167.78C333.409 171.482 363.317 175.069 393.369 176.833C425.735 178.742 458.072 177.672 490.351 174.606C544.641 169.458 597.109 156.789 648.507 138.769C679.918 127.749 715.379 114.097 747.513 130.439C769.611 141.662 781.326 166.826 773.487 190.659C762.756 223.314 724.461 234.045 693.802 234.912H693.744Z" fill="#42414F"/>
<path d="M653.078 219.525C633.41 214.03 630.026 199.741 639.513 187.101C648.74 174.838 690.997 156.702 713.934 160.058C748.238 165.119 750.118 195.721 729.351 208.361C708.265 221.203 675.031 225.657 653.078 219.525Z" fill="#6C6B77"/>
<path d="M552.389 216.833C563.438 216.833 572.636 207.635 572.636 196.586C572.636 185.537 563.438 176.339 552.389 176.339C541.34 176.339 532.143 185.537 532.143 196.586C532.143 207.635 541.34 216.833 552.389 216.833Z" fill="#E30004"/>
<path d="M538.014 206.159C534.746 201.618 533.849 194.561 535.671 188.979C537.32 183.888 541.427 179.289 548.571 176.715C539.316 178.537 532.143 186.838 532.143 196.586C532.143 207.635 541.34 216.832 552.389 216.832C563.438 216.832 572.636 207.635 572.636 196.586C572.636 193.78 572.029 191.09 570.958 188.632C572.549 193.115 571.768 200.519 567.777 205.639C560.517 214.952 544.927 215.82 538.014 206.188V206.159Z" fill="#B20003"/>
<path d="M550.389 112.833C561.438 112.833 570.636 103.635 570.636 92.5861C570.636 81.5372 561.438 72.3394 550.389 72.3394C539.34 72.3394 530.143 81.5372 530.143 92.5861C530.143 103.635 539.34 112.833 550.389 112.833Z" fill="#E30004"/>
<path d="M536.014 102.159C532.746 97.6184 531.849 90.5609 533.671 84.9786C535.32 79.888 539.427 75.2891 546.571 72.7148C537.316 74.5371 530.143 82.8382 530.143 92.5856C530.143 103.635 539.34 112.832 550.389 112.832C561.438 112.832 570.636 103.635 570.636 92.5856C570.636 89.78 570.029 87.09 568.958 84.6315C570.549 89.1147 569.768 96.5192 565.777 101.639C558.517 110.952 542.927 111.82 536.014 102.188V102.159Z" fill="#B20003"/>
<g opacity="0.3">
<g opacity="0.4">
<path d="M20.2468 83.193C31.2668 83.193 40.4935 73.9951 40.4935 62.9462C40.4935 51.8973 31.2668 42.6995 20.2468 42.6995C9.22674 42.6995 0 51.8973 0 62.9462C0 73.9951 9.19781 83.193 20.2468 83.193Z" fill="#E30004"/>
<path d="M5.87156 72.5198C2.60315 67.9787 1.70651 60.9213 3.52872 55.3389C5.17738 50.2483 9.28458 45.6494 16.4288 43.0752C7.17314 44.8974 0 53.1986 0 62.9459C0 73.9949 9.19781 83.1927 20.2468 83.1927C31.2957 83.1927 40.4935 73.9949 40.4935 62.9459C40.4935 60.1403 39.8861 57.4504 38.8159 54.9919C40.4067 59.4751 39.6258 66.8796 35.6343 71.9702C28.3744 81.2837 12.7844 82.1514 5.87156 72.5198Z" fill="#B20003"/>
<path d="M217.21 40.4935C228.259 40.4935 237.456 31.2957 237.456 20.2468C237.456 9.19781 228.259 0 217.21 0C206.161 0 196.963 9.19781 196.963 20.2468C196.963 31.2957 206.161 40.4935 217.21 40.4935Z" fill="#E30004"/>
<path d="M202.834 29.8201C199.566 25.279 198.669 18.2215 200.492 12.6392C202.14 7.54862 206.247 2.94972 213.392 0.375488C204.136 2.1977 196.963 10.4989 196.963 20.2462C196.963 31.2952 206.161 40.493 217.21 40.493C228.259 40.493 237.456 31.2952 237.456 20.2462C237.456 17.4406 236.849 14.7507 235.779 12.2921C237.37 16.7754 236.589 24.1799 232.597 29.2994C225.337 38.6129 209.747 39.4806 202.834 29.849V29.8201Z" fill="#B20003"/>
<path d="M194.252 78.7102C197.665 78.7102 200.5 75.8757 200.5 72.4626C200.5 69.0496 197.665 66.2151 194.252 66.2151C190.839 66.2151 188.005 69.0496 188.005 72.4626C188.005 75.8757 190.839 78.7102 194.252 78.7102Z" fill="#E30004"/>
<path d="M189.798 75.413C188.786 74.0247 188.526 71.8265 189.075 70.091C189.596 68.5291 190.868 67.0829 193.067 66.302C190.203 66.8805 188.005 69.4258 188.005 72.4339C188.005 75.8469 190.839 78.6814 194.252 78.6814C197.665 78.6814 200.5 75.8469 200.5 72.4339C200.5 71.5662 200.327 70.7274 199.979 69.9753C200.471 71.3637 200.24 73.6487 198.996 75.2395C196.74 78.103 191.939 78.3922 189.798 75.413Z" fill="#B20003"/>
<path d="M197.058 67.4879C195.322 66.5334 192.517 66.678 190.839 68.587C189.827 69.744 189.537 71.3059 190.145 72.6074C190.665 73.7355 191.765 74.6032 193.095 74.8924C195.698 75.4709 199.805 73.8222 199.024 70.091C198.793 69.0209 198.07 68.0374 197.058 67.4879Z" fill="#FF0004"/>
<path d="M195.814 68.587C196.392 69.3679 196.971 70.1199 197.289 71.1323C197.607 72.1735 197.636 73.2726 197.752 74.3428C197.839 75.1527 198.388 75.5866 198.851 74.4296C199.719 72.1735 198.533 68.7894 196.335 67.7771C195.698 67.4879 195.178 67.7771 195.814 68.587Z" fill="#FF3336"/>
<path d="M189.625 72.0002C189.365 72.7811 189.539 73.8224 190.03 74.4298C190.522 75.0372 191.679 75.1239 191.274 73.7934C191.187 73.5042 191.072 73.2439 190.985 72.9836C190.898 72.6654 190.84 72.3472 190.782 72.0291C190.609 71.2481 189.915 71.1614 189.625 72.0291V72.0002Z" fill="#FF3336"/>
<path d="M268.418 57.2544C271.831 57.2544 274.666 54.4199 274.666 51.0068C274.666 47.5938 271.831 44.7593 268.418 44.7593C265.005 44.7593 262.171 47.5938 262.171 51.0068C262.171 54.4199 265.005 57.2544 268.418 57.2544Z" fill="#E30004"/>
<path d="M263.992 53.9572C262.979 52.5689 262.719 50.3707 263.268 48.6352C263.789 47.0733 265.062 45.6271 267.26 44.8462C264.396 45.4247 262.198 47.97 262.198 50.9781C262.198 54.3911 265.033 57.2256 268.446 57.2256C271.859 57.2256 274.693 54.3911 274.693 50.9781C274.693 50.1103 274.52 49.2716 274.173 48.5195C274.664 49.9079 274.433 52.1929 273.189 53.7837C270.933 56.6472 266.132 56.9364 263.992 53.9572Z" fill="#B20003"/>
<path d="M271.253 46.0321C269.517 45.0776 266.712 45.2222 265.034 47.1312C264.022 48.2881 263.733 49.85 264.34 51.1516C264.861 52.2796 265.96 53.1474 267.29 53.4366C269.893 54.0151 274.001 52.3664 273.22 48.6352C272.988 47.565 272.265 46.5816 271.253 46.0321Z" fill="#FF0004"/>
<path d="M270.011 47.1312C270.59 47.9121 271.168 48.6641 271.486 49.6765C271.805 50.7177 271.833 51.8168 271.949 52.887C272.036 53.6969 272.586 54.1308 273.048 52.9738C273.916 50.7177 272.73 47.3336 270.532 46.3213C269.896 46.0321 269.375 46.3213 270.011 47.1312Z" fill="#FF3336"/>
<path d="M263.791 50.5443C263.531 51.3253 263.705 52.3666 264.196 52.974C264.688 53.5814 265.845 53.6681 265.44 52.3376C265.353 52.0484 265.238 51.7881 265.151 51.5278C265.064 51.2096 265.006 50.8914 264.948 50.5733C264.775 49.7923 264.081 49.7055 263.791 50.5733V50.5443Z" fill="#FF3336"/>
<path d="M159.109 113.072C160.7 113.072 162.031 111.741 162.031 110.15C162.031 108.559 160.7 107.229 159.109 107.229C157.518 107.229 156.217 108.559 156.217 110.15C156.217 111.741 157.547 113.072 159.109 113.072Z" fill="#E30004"/>
<path d="M157.057 111.539C156.594 110.873 156.45 109.861 156.71 109.08C156.941 108.357 157.549 107.692 158.561 107.316C157.231 107.576 156.189 108.762 156.189 110.179C156.189 111.77 157.52 113.1 159.082 113.1C160.644 113.1 162.003 111.77 162.003 110.179C162.003 109.774 161.916 109.398 161.772 109.022C162.003 109.659 161.887 110.729 161.309 111.452C160.268 112.782 158.041 112.898 157.028 111.539H157.057Z" fill="#B20003"/>
<path d="M160.413 107.865C159.604 107.402 158.302 107.489 157.521 108.386C157.058 108.935 156.914 109.658 157.203 110.266C157.434 110.786 157.955 111.191 158.591 111.336C159.806 111.596 161.715 110.844 161.339 109.109C161.223 108.617 160.905 108.154 160.413 107.894V107.865Z" fill="#FF0004"/>
<path d="M159.834 108.386C160.094 108.762 160.354 109.109 160.528 109.572C160.672 110.064 160.672 110.555 160.759 111.076C160.817 111.452 161.048 111.654 161.251 111.105C161.656 110.064 161.106 108.473 160.094 108.01C159.805 107.865 159.544 108.01 159.863 108.386H159.834Z" fill="#FF3336"/>
<path d="M156.97 109.976C156.854 110.324 156.912 110.815 157.172 111.104C157.404 111.394 157.924 111.423 157.751 110.815C157.722 110.7 157.664 110.555 157.606 110.439C157.548 110.295 157.548 110.15 157.519 110.005C157.433 109.629 157.115 109.6 156.999 110.005L156.97 109.976Z" fill="#FF3336"/>
<path d="M205.1 64.3636C206.691 64.3636 208.022 63.0331 208.022 61.4423C208.022 59.8515 206.691 58.521 205.1 58.521C203.51 58.521 202.208 59.8515 202.208 61.4423C202.208 63.0331 203.539 64.3636 205.1 64.3636Z" fill="#E30004"/>
<path d="M203.048 62.8308C202.586 62.1656 202.441 61.1532 202.701 60.3723C202.933 59.6492 203.54 58.9839 204.552 58.6079C203.222 58.8682 202.181 60.0541 202.181 61.4714C202.181 63.0622 203.511 64.3927 205.073 64.3927C206.635 64.3927 207.994 63.0622 207.994 61.4714C207.994 61.0664 207.908 60.6904 207.763 60.3144C207.994 60.9507 207.879 62.0209 207.3 62.744C206.259 64.0745 204.032 64.1902 203.019 62.8308H203.048Z" fill="#B20003"/>
<path d="M206.433 59.1281C205.623 58.6653 204.322 58.7521 203.541 59.6487C203.078 60.1983 202.933 60.9214 203.222 61.5288C203.454 62.0494 203.974 62.4543 204.611 62.599C205.826 62.8593 207.735 62.1072 207.359 60.3718C207.243 59.8801 206.925 59.4173 206.433 59.157V59.1281Z" fill="#FF0004"/>
<path d="M205.853 59.6492C206.114 60.0252 206.374 60.3723 206.547 60.8351C206.692 61.3268 206.692 61.8185 206.779 62.3391C206.837 62.7151 207.068 62.9176 207.27 62.3681C207.675 61.3268 207.126 59.736 206.113 59.2732C205.824 59.1286 205.564 59.2732 205.882 59.6492H205.853Z" fill="#FF3336"/>
<path d="M202.961 61.2396C202.845 61.5867 202.903 62.0784 203.164 62.3676C203.395 62.6569 203.916 62.6858 203.742 62.0784C203.713 61.9627 203.655 61.8181 203.597 61.7024C203.54 61.5578 203.54 61.4132 203.511 61.2685C203.424 60.8925 203.106 60.8636 202.99 61.2685L202.961 61.2396Z" fill="#FF3336"/>
<path d="M168.596 32.7787C170.187 32.7787 171.518 31.4482 171.518 29.8573C171.518 28.2665 170.187 26.936 168.596 26.936C167.006 26.936 165.704 28.2665 165.704 29.8573C165.704 31.4482 167.035 32.7787 168.596 32.7787Z" fill="#E30004"/>
<path d="M166.544 31.2459C166.082 30.5806 165.937 29.5683 166.197 28.7873C166.429 28.0642 167.036 27.399 168.049 27.0229C166.718 27.2833 165.677 28.4692 165.677 29.8864C165.677 31.4772 167.007 32.8077 168.569 32.8077C170.131 32.8077 171.49 31.4772 171.49 29.8864C171.49 29.4815 171.404 29.1055 171.259 28.7295C171.49 29.3658 171.375 30.436 170.796 31.1591C169.755 32.4896 167.528 32.6053 166.516 31.2459H166.544Z" fill="#B20003"/>
<path d="M169.901 27.5722C169.091 27.1094 167.789 27.1962 167.008 28.0928C166.546 28.6423 166.401 29.3654 166.69 29.9728C166.922 30.4935 167.442 30.8984 168.079 31.043C169.293 31.3033 171.202 30.5513 170.826 28.8159C170.711 28.3242 170.392 27.8614 169.901 27.6011V27.5722Z" fill="#FF0004"/>
<path d="M169.322 28.0931C169.582 28.4691 169.843 28.8161 170.016 29.2789C170.161 29.7706 170.161 30.2623 170.247 30.783C170.305 31.159 170.537 31.3615 170.739 30.8119C171.144 29.7706 170.595 28.1798 169.582 27.717C169.293 27.5724 169.033 27.717 169.351 28.0931H169.322Z" fill="#FF3336"/>
<path d="M166.457 29.6837C166.342 30.0308 166.399 30.5225 166.66 30.8117C166.891 31.101 167.412 31.1299 167.238 30.5225C167.209 30.4068 167.151 30.2622 167.094 30.1465C167.036 30.0019 167.036 29.8573 167.007 29.7126C166.92 29.3366 166.602 29.3077 166.486 29.7126L166.457 29.6837Z" fill="#FF3336"/>
<path d="M36.0662 103.122C37.657 103.122 38.9875 101.792 38.9875 100.201C38.9875 98.61 37.657 97.2795 36.0662 97.2795C34.4754 97.2795 33.1738 98.61 33.1738 100.201C33.1738 101.792 34.5043 103.122 36.0662 103.122Z" fill="#E30004"/>
<path d="M34.0142 101.59C33.5514 100.924 33.4068 99.912 33.6671 99.1311C33.8985 98.408 34.5059 97.7427 35.5182 97.3667C34.1877 97.627 33.1465 98.8129 33.1465 100.23C33.1465 101.821 34.477 103.151 36.0389 103.151C37.6008 103.151 38.9602 101.821 38.9602 100.23C38.9602 99.8252 38.8734 99.4492 38.7288 99.0732C38.9602 99.7095 38.8445 100.78 38.266 101.503C37.2248 102.833 34.9976 102.949 33.9853 101.59H34.0142Z" fill="#B20003"/>
<path d="M37.3988 97.9159C36.589 97.4531 35.2874 97.5399 34.5064 98.4365C34.0437 98.9861 33.899 99.7092 34.1883 100.317C34.4197 100.837 34.9403 101.242 35.5766 101.387C36.7914 101.647 38.7004 100.895 38.3244 99.1596C38.2087 98.6679 37.8905 98.2052 37.3988 97.9448V97.9159Z" fill="#FF0004"/>
<path d="M36.819 98.4368C37.0793 98.8128 37.3396 99.1599 37.5132 99.6227C37.6578 100.114 37.6578 100.606 37.7446 101.127C37.8024 101.503 38.0338 101.705 38.2363 101.156C38.6412 100.114 38.0916 98.5236 37.0793 98.0608C36.7901 97.9162 36.5298 98.0608 36.8479 98.4368H36.819Z" fill="#FF3336"/>
<path d="M33.9269 99.9982C33.8112 100.345 33.8691 100.837 34.1294 101.126C34.3608 101.415 34.8814 101.444 34.7079 100.837C34.679 100.721 34.6211 100.577 34.5633 100.461C34.5054 100.316 34.5054 100.172 34.4765 100.027C34.3897 99.6511 34.0716 99.6222 33.9559 100.027L33.9269 99.9982Z" fill="#FF3336"/>
<path d="M88.8543 8.33824C90.4451 8.33824 91.7756 7.00775 91.7756 5.41693C91.7756 3.82611 90.4451 2.49561 88.8543 2.49561C87.2635 2.49561 85.9619 3.82611 85.9619 5.41693C85.9619 7.00775 87.2924 8.33824 88.8543 8.33824Z" fill="#E30004"/>
<path d="M86.8013 6.80541C86.3385 6.14016 86.1939 5.12782 86.4542 4.34687C86.6856 3.62377 87.293 2.95853 88.3054 2.58252C86.9749 2.84283 85.9336 4.02871 85.9336 5.44598C85.9336 7.0368 87.2641 8.36731 88.826 8.36731C90.3879 8.36731 91.7473 7.0368 91.7473 5.44598C91.7473 5.04105 91.6605 4.66503 91.5159 4.28902C91.7473 4.92535 91.6316 5.99553 91.0531 6.71863C90.0119 8.04913 87.7847 8.16484 86.7724 6.80541H86.8013Z" fill="#B20003"/>
<path d="M90.1576 3.10268C89.3478 2.6399 88.0462 2.72667 87.2652 3.62331C86.8024 4.17287 86.6578 4.89597 86.9471 5.50337C87.1785 6.024 87.6991 6.42893 88.3354 6.57355C89.5502 6.83387 91.4592 6.08185 91.0832 4.34641C90.9675 3.8547 90.6493 3.39192 90.1576 3.13161V3.10268Z" fill="#FF0004"/>
<path d="M89.5788 3.6238C89.8391 3.99981 90.0994 4.3469 90.2729 4.80968C90.4176 5.30139 90.4176 5.7931 90.5043 6.31373C90.5622 6.68974 90.7936 6.89222 90.996 6.34266C91.401 5.3014 90.8514 3.71058 89.8391 3.2478C89.5498 3.10318 89.2895 3.24779 89.6077 3.6238H89.5788Z" fill="#FF3336"/>
<path d="M86.714 5.21423C86.5983 5.56132 86.6562 6.05302 86.9165 6.34226C87.1479 6.6315 87.6685 6.66042 87.495 6.05302C87.4661 5.93732 87.4082 5.79271 87.3504 5.67701C87.2925 5.53239 87.2925 5.38777 87.2636 5.24315C87.1768 4.86714 86.8587 4.83822 86.743 5.24315L86.714 5.21423Z" fill="#FF3336"/>
<path d="M34.3026 40.1837C35.8934 40.1837 37.2239 38.8532 37.2239 37.2624C37.2239 35.6716 35.8934 34.3411 34.3026 34.3411C32.7117 34.3411 31.4102 35.6716 31.4102 37.2624C31.4102 38.8532 32.7407 40.1837 34.3026 40.1837Z" fill="#E30004"/>
<path d="M32.2496 38.6506C31.7868 37.9854 31.6422 36.973 31.9025 36.1921C32.1339 35.469 32.7413 34.8037 33.7536 34.4277C32.4231 34.688 31.3818 35.8739 31.3818 37.2912C31.3818 38.882 32.7123 40.2125 34.2742 40.2125C35.8361 40.2125 37.1956 38.882 37.1956 37.2912C37.1956 36.8863 37.1088 36.5103 36.9642 36.1342C37.1956 36.7706 37.0798 37.8408 36.5014 38.5639C35.4601 39.8944 33.233 40.0101 32.2206 38.6506H32.2496Z" fill="#B20003"/>
<path d="M35.6059 34.9481C34.796 34.4854 33.4944 34.5721 32.7135 35.4688C32.2507 36.0183 32.1061 36.7414 32.3953 37.3488C32.6267 37.8695 33.1473 38.2744 33.7837 38.419C34.9985 38.6793 36.9074 37.9273 36.5314 36.1919C36.4157 35.7002 36.0976 35.2374 35.6059 34.9771V34.9481Z" fill="#FF0004"/>
<path d="M35.0543 35.469C35.3147 35.845 35.575 36.1921 35.7485 36.6549C35.8931 37.1466 35.8931 37.6383 35.9799 38.159C36.0378 38.535 36.2692 38.7374 36.4716 38.1879C36.8766 37.1466 36.327 35.5558 35.3147 35.093C35.0254 34.9484 34.7651 35.093 35.0833 35.469H35.0543Z" fill="#FF3336"/>
<path d="M32.1623 37.0597C32.0466 37.4068 32.1044 37.8985 32.3648 38.1877C32.5961 38.477 33.1168 38.5059 32.9432 37.8985C32.9143 37.7828 32.8565 37.6382 32.7986 37.5225C32.7408 37.3779 32.7408 37.2332 32.7118 37.0886C32.6251 36.7126 32.3069 36.6837 32.1912 37.0886L32.1623 37.0597Z" fill="#FF3336"/>
<path d="M65.7446 77.5239C69.1577 77.5239 71.9922 74.6894 71.9922 71.2764C71.9922 67.8634 69.1577 65.0288 65.7446 65.0288C62.3316 65.0288 59.4971 67.8634 59.4971 71.2764C59.4971 74.6894 62.3316 77.5239 65.7446 77.5239Z" fill="#E30004"/>
<path d="M61.3187 74.1977C60.3063 72.8093 60.046 70.6111 60.5956 68.8757C61.1162 67.3138 62.3889 65.8676 64.5871 65.0867C61.7236 65.6651 59.5254 68.2104 59.5254 71.2185C59.5254 74.6316 62.3599 77.4661 65.773 77.4661C69.186 77.4661 72.0205 74.6316 72.0205 71.2185C72.0205 70.3508 71.847 69.512 71.4999 68.76C71.9916 70.1483 71.7602 72.4333 70.5165 74.0242C68.2604 76.8876 63.459 77.1769 61.3187 74.1977Z" fill="#B20003"/>
<path d="M68.5508 66.3016C66.8154 65.3471 64.0097 65.4917 62.3321 67.4007C61.3198 68.5577 61.0306 70.1196 61.638 71.4211C62.1586 72.5492 63.2577 73.4169 64.5882 73.7061C67.1914 74.2846 71.2986 72.636 70.5176 68.9048C70.2862 67.8346 69.5631 66.8512 68.5508 66.3016Z" fill="#FF0004"/>
<path d="M67.3374 67.4007C67.9159 68.1816 68.4944 68.9337 68.8126 69.946C69.1307 70.9873 69.1596 72.0864 69.2753 73.1566C69.3621 73.9664 69.9117 74.4003 70.3744 73.2433C71.2422 70.9873 70.0563 67.6032 67.8581 66.5908C67.2217 66.3016 66.7011 66.5908 67.3374 67.4007Z" fill="#FF3336"/>
<path d="M61.1175 70.8139C60.8572 71.5948 61.0308 72.6361 61.5225 73.2435C62.0142 73.8509 63.1711 73.9377 62.7662 72.6072C62.6794 72.3179 62.5637 72.0576 62.477 71.7973C62.3902 71.4791 62.3323 71.161 62.2745 70.8428C62.101 70.0619 61.4068 69.9751 61.1175 70.8428V70.8139Z" fill="#FF3336"/>
<path d="M24.4126 145.582C27.8256 145.582 30.6602 142.747 30.6602 139.334C30.6602 135.921 27.8256 133.087 24.4126 133.087C20.9996 133.087 18.165 135.921 18.165 139.334C18.165 142.747 20.9996 145.582 24.4126 145.582Z" fill="#E30004"/>
<path d="M19.9583 142.285C18.946 140.897 18.6857 138.698 19.2352 136.963C19.7559 135.401 21.0285 133.955 23.2267 133.174C20.3633 133.752 18.165 136.298 18.165 139.306C18.165 142.719 20.9996 145.553 24.4126 145.553C27.8256 145.553 30.6602 142.719 30.6602 139.306C30.6602 138.438 30.4866 137.599 30.1395 136.847C30.6313 138.236 30.3999 140.52 29.1561 142.111C26.9001 144.975 22.0987 145.264 19.9583 142.285Z" fill="#B20003"/>
<path d="M27.2178 134.389C25.4823 133.434 22.6767 133.579 20.9991 135.488C19.9868 136.645 19.6976 138.206 20.305 139.508C20.8256 140.636 21.9247 141.504 23.2552 141.793C25.8584 142.372 29.9656 140.723 29.1846 136.992C28.9532 135.921 28.2301 134.938 27.2178 134.389Z" fill="#FF0004"/>
<path d="M25.9742 135.487C26.5526 136.268 27.1311 137.02 27.4493 138.033C27.7674 139.074 27.7964 140.173 27.9121 141.243C27.9988 142.053 28.5484 142.487 29.0112 141.33C29.8789 139.074 28.693 135.69 26.4948 134.678C25.8585 134.388 25.3378 134.677 25.9742 135.487Z" fill="#FF3336"/>
<path d="M19.7855 138.901C19.5252 139.681 19.6987 140.723 20.1904 141.33C20.6821 141.938 21.8391 142.024 21.4342 140.694C21.3474 140.405 21.2317 140.144 21.1449 139.884C21.0582 139.566 21.0003 139.248 20.9425 138.929C20.7689 138.149 20.0747 138.062 19.7855 138.929V138.901Z" fill="#FF3336"/>
<path d="M118.5 35.4683C121.914 35.4683 124.748 32.6337 124.748 29.2207C124.748 25.8077 121.914 22.9731 118.5 22.9731C115.087 22.9731 112.253 25.8077 112.253 29.2207C112.253 32.6337 115.087 35.4683 118.5 35.4683Z" fill="#E30004"/>
<path d="M114.046 32.1711C113.034 30.7828 112.774 28.5845 113.323 26.8491C113.844 25.2872 115.116 23.841 117.315 23.0601C114.451 23.6385 112.253 26.1838 112.253 29.1919C112.253 32.605 115.087 35.4395 118.5 35.4395C121.914 35.4395 124.748 32.605 124.748 29.1919C124.748 28.3242 124.575 27.4854 124.227 26.7334C124.719 28.1217 124.488 30.4067 123.244 31.9976C120.988 34.861 116.187 35.1503 114.046 32.1711Z" fill="#B20003"/>
<path d="M121.307 24.2459C119.571 23.2915 116.766 23.4361 115.088 25.3451C114.076 26.502 113.786 28.0639 114.394 29.3655C114.914 30.4935 116.014 31.3612 117.344 31.6505C119.947 32.229 124.054 30.5803 123.273 26.8491C123.042 25.7789 122.319 24.7955 121.307 24.2459Z" fill="#FF0004"/>
<path d="M120.061 25.3448C120.64 26.1257 121.218 26.8778 121.536 27.8901C121.854 28.9314 121.883 30.0305 121.999 31.1007C122.086 31.9105 122.635 32.3444 123.098 31.1874C123.966 28.9314 122.78 25.5473 120.582 24.5349C119.945 24.2457 119.425 24.5349 120.061 25.3448Z" fill="#FF3336"/>
<path d="M113.873 28.758C113.613 29.5389 113.787 30.5802 114.278 31.1876C114.77 31.795 115.927 31.8818 115.522 30.5513C115.435 30.262 115.32 30.0017 115.233 29.7414C115.146 29.4232 115.088 29.1051 115.03 28.7869C114.857 28.0059 114.163 27.9192 113.873 28.7869V28.758Z" fill="#FF3336"/>
<path d="M152.778 73.0118C163.798 73.0118 173.025 63.814 173.025 52.7651C173.025 41.7161 163.827 32.5183 152.778 32.5183C141.729 32.5183 132.531 41.7161 132.531 52.7651C132.531 63.814 141.729 73.0118 152.778 73.0118Z" fill="#E30004"/>
<path d="M138.401 62.3384C135.133 57.7973 134.236 50.7399 136.058 45.1575C137.707 40.0959 141.814 35.468 148.958 32.8938C139.703 34.716 132.559 43.0172 132.559 52.7645C132.559 63.8135 141.756 73.0113 152.805 73.0113C163.854 73.0113 173.052 63.8135 173.052 52.7645C173.052 49.9589 172.445 47.269 171.375 44.8105C172.965 49.2937 172.184 56.6982 168.193 61.7888C160.933 71.1023 145.343 71.97 138.43 62.3094L138.401 62.3384Z" fill="#B20003"/>
<path d="M61.5798 133.376C72.5998 133.376 81.8265 124.179 81.8265 113.13C81.8265 102.081 72.6287 92.8828 61.5798 92.8828C50.5308 92.8828 41.333 102.081 41.333 113.13C41.333 124.179 50.5597 133.376 61.5798 133.376Z" fill="#E30004"/>
<path d="M47.2046 122.703C43.9362 118.162 43.0395 111.105 44.8617 105.523C46.5104 100.461 50.6176 95.833 57.7618 93.2588C48.5061 95.081 41.333 103.382 41.333 113.13C41.333 124.178 50.5597 133.376 61.5798 133.376C72.5998 133.376 81.8265 124.178 81.8265 113.13C81.8265 110.324 81.2191 107.634 80.1489 105.175C81.7397 109.659 80.9588 117.063 76.9673 122.154C69.7074 131.467 54.1174 132.335 47.2046 122.703Z" fill="#B20003"/>
</g>
<g opacity="0.4">
<path d="M125.355 156.356C136.375 156.356 145.602 147.158 145.602 136.109C145.602 125.06 136.375 115.862 125.355 115.862C114.335 115.862 105.108 125.06 105.108 136.109C105.108 147.158 114.306 156.356 125.355 156.356Z" fill="#E30004"/>
<path d="M110.98 145.682C107.712 141.141 106.815 134.084 108.637 128.502C110.286 123.411 114.393 118.812 121.537 116.238C112.282 118.06 105.108 126.361 105.108 136.109C105.108 147.157 114.306 156.355 125.355 156.355C136.404 156.355 145.602 147.157 145.602 136.109C145.602 133.303 144.994 130.613 143.924 128.154C145.515 132.638 144.734 140.042 140.743 145.133C133.483 154.446 117.893 155.314 110.98 145.682Z" fill="#B20003"/>
</g>
<g opacity="0.4">
<path d="M312.318 103.627C323.367 103.627 332.565 94.4295 332.565 83.3805C332.565 72.3316 323.367 63.1338 312.318 63.1338C301.269 63.1338 292.071 72.3316 292.071 83.3805C292.071 94.4295 301.269 103.627 312.318 103.627Z" fill="#E30004"/>
<path d="M297.916 92.9539C294.647 88.4128 293.75 81.3554 295.573 75.773C297.221 70.6824 301.329 66.0835 308.473 63.5093C299.217 65.3315 292.044 73.6327 292.044 83.38C292.044 94.429 301.242 103.627 312.291 103.627C323.34 103.627 332.537 94.429 332.537 83.38C332.537 80.5744 331.93 77.8845 330.86 75.4259C332.451 79.9091 331.67 87.3137 327.678 92.4332C320.418 101.747 304.828 102.614 297.916 92.9828V92.9539Z" fill="#B20003"/>
</g>
<g opacity="0.4">
<path d="M299.334 151.843C302.748 151.843 305.582 149.009 305.582 145.595C305.582 142.182 302.748 139.348 299.334 139.348C295.921 139.348 293.087 142.182 293.087 145.595C293.087 149.009 295.921 151.843 299.334 151.843Z" fill="#E30004"/>
<path d="M294.908 148.546C293.895 147.157 293.635 144.959 294.184 143.224C294.705 141.662 295.978 140.216 298.176 139.435C295.312 140.013 293.114 142.559 293.114 145.567C293.114 148.98 295.949 151.814 299.362 151.814C302.775 151.814 305.609 148.98 305.609 145.567C305.609 144.699 305.436 143.86 305.089 143.108C305.58 144.496 305.349 146.781 304.105 148.372C301.849 151.236 297.048 151.525 294.908 148.546Z" fill="#B20003"/>
<path d="M302.169 140.621C300.434 139.666 297.628 139.811 295.95 141.72C294.938 142.877 294.649 144.439 295.256 145.74C295.777 146.868 296.876 147.736 298.206 148.025C300.81 148.604 304.917 146.955 304.136 143.224C303.904 142.154 303.181 141.17 302.169 140.621Z" fill="#FF0004"/>
<path d="M300.927 141.72C301.506 142.501 302.084 143.253 302.402 144.265C302.721 145.306 302.75 146.405 302.865 147.476C302.952 148.286 303.502 148.719 303.964 147.562C304.832 145.306 303.646 141.922 301.448 140.91C300.812 140.621 300.291 140.91 300.927 141.72Z" fill="#FF3336"/>
<path d="M294.735 145.133C294.474 145.914 294.648 146.955 295.14 147.563C295.631 148.17 296.788 148.257 296.383 146.926C296.297 146.637 296.181 146.377 296.094 146.116C296.007 145.798 295.95 145.48 295.892 145.162C295.718 144.381 295.024 144.294 294.735 145.162V145.133Z" fill="#FF3336"/>
</g>
<g opacity="0.4">
<path d="M343.531 100.387C346.944 100.387 349.778 97.5527 349.778 94.1396C349.778 90.7266 346.944 87.8921 343.531 87.8921C340.118 87.8921 337.283 90.7266 337.283 94.1396C337.283 97.5527 340.118 100.387 343.531 100.387Z" fill="#E30004"/>
<path d="M339.076 97.0898C338.064 95.7014 337.804 93.5032 338.353 91.7678C338.874 90.2059 340.147 88.7597 342.345 87.9788C339.481 88.5572 337.283 91.1025 337.283 94.1106C337.283 97.5236 340.118 100.358 343.531 100.358C346.944 100.358 349.778 97.5236 349.778 94.1106C349.778 93.2429 349.605 92.4041 349.258 91.6521C349.749 93.0404 349.518 95.3254 348.274 96.9162C346.018 99.7797 341.217 100.069 339.076 97.0898Z" fill="#B20003"/>
<path d="M346.336 89.1937C344.601 88.2392 341.795 88.3838 340.117 90.2928C339.105 91.4498 338.816 93.0116 339.423 94.3132C339.944 95.4413 341.043 96.309 342.373 96.5982C344.977 97.1767 349.084 95.528 348.303 91.7969C348.071 90.7267 347.348 89.7433 346.336 89.1937Z" fill="#FF0004"/>
<path d="M345.092 90.2928C345.671 91.0737 346.249 91.8258 346.567 92.8381C346.886 93.8794 346.915 94.9785 347.03 96.0487C347.117 96.8585 347.667 97.2924 348.129 96.1354C348.997 93.8794 347.811 90.4953 345.613 89.4829C344.977 89.1937 344.456 89.4829 345.092 90.2928Z" fill="#FF3336"/>
<path d="M338.904 93.6767C338.643 94.4576 338.817 95.4989 339.309 96.1063C339.8 96.7137 340.957 96.8005 340.552 95.47C340.466 95.1807 340.35 94.9204 340.263 94.6601C340.176 94.3419 340.118 94.0238 340.061 93.7056C339.887 92.9246 339.193 92.8379 338.904 93.7056V93.6767Z" fill="#FF3336"/>
</g>
<g opacity="0.4">
<path d="M264.221 186.234C265.811 186.234 267.142 184.903 267.142 183.312C267.142 181.722 265.811 180.391 264.221 180.391C262.63 180.391 261.328 181.722 261.328 183.312C261.328 184.903 262.659 186.234 264.221 186.234Z" fill="#E30004"/>
<path d="M262.139 184.701C261.676 184.035 261.532 183.023 261.792 182.242C262.024 181.519 262.631 180.854 263.643 180.478C262.313 180.738 261.271 181.924 261.271 183.341C261.271 184.932 262.602 186.263 264.164 186.263C265.726 186.263 267.085 184.932 267.085 183.341C267.085 182.936 266.998 182.56 266.854 182.184C267.085 182.821 266.97 183.891 266.391 184.614C265.35 185.944 263.123 186.06 262.11 184.701H262.139Z" fill="#B20003"/>
<path d="M265.524 181.027C264.714 180.564 263.412 180.651 262.631 181.548C262.169 182.097 262.024 182.821 262.313 183.428C262.545 183.949 263.065 184.353 263.702 184.498C264.916 184.758 266.825 184.006 266.449 182.271C266.334 181.779 266.016 181.316 265.524 181.056V181.027Z" fill="#FF0004"/>
<path d="M264.944 181.519C265.204 181.895 265.465 182.242 265.638 182.705C265.783 183.197 265.783 183.688 265.87 184.209C265.927 184.585 266.159 184.787 266.361 184.238C266.766 183.197 266.217 181.606 265.204 181.143C264.915 180.998 264.655 181.143 264.973 181.519H264.944Z" fill="#FF3336"/>
<path d="M262.083 183.11C261.967 183.457 262.025 183.949 262.286 184.238C262.517 184.527 263.038 184.556 262.864 183.949C262.835 183.833 262.777 183.688 262.72 183.573C262.662 183.428 262.662 183.283 262.633 183.139C262.546 182.763 262.228 182.734 262.112 183.139L262.083 183.11Z" fill="#FF3336"/>
</g>
<g opacity="0.4">
<path d="M310.209 137.497C311.8 137.497 313.13 136.167 313.13 134.576C313.13 132.985 311.8 131.655 310.209 131.655C308.618 131.655 307.316 132.985 307.316 134.576C307.316 136.167 308.647 137.497 310.209 137.497Z" fill="#E30004"/>
<path d="M308.157 135.964C307.694 135.299 307.549 134.287 307.81 133.506C308.041 132.783 308.648 132.117 309.661 131.741C308.33 132.002 307.289 133.188 307.289 134.605C307.289 136.196 308.62 137.526 310.181 137.526C311.743 137.526 313.103 136.196 313.103 134.605C313.103 134.2 313.016 133.824 312.871 133.448C313.103 134.084 312.987 135.154 312.409 135.878C311.367 137.208 309.14 137.324 308.128 135.964H308.157Z" fill="#B20003"/>
<path d="M311.513 132.291C310.703 131.828 309.402 131.915 308.621 132.811C308.158 133.361 308.013 134.084 308.303 134.691C308.534 135.212 309.055 135.617 309.691 135.762C310.906 136.022 312.815 135.27 312.439 133.534C312.323 133.043 312.005 132.58 311.513 132.32V132.291Z" fill="#FF0004"/>
<path d="M310.934 132.783C311.195 133.159 311.455 133.506 311.628 133.969C311.773 134.46 311.773 134.952 311.86 135.473C311.918 135.849 312.149 136.051 312.352 135.502C312.756 134.46 312.207 132.87 311.195 132.407C310.905 132.262 310.645 132.407 310.963 132.783H310.934Z" fill="#FF3336"/>
<path d="M308.07 134.373C307.954 134.72 308.012 135.212 308.272 135.501C308.503 135.79 309.024 135.819 308.85 135.212C308.822 135.096 308.764 134.952 308.706 134.836C308.648 134.691 308.648 134.547 308.619 134.402C308.532 134.026 308.214 133.997 308.098 134.402L308.07 134.373Z" fill="#FF3336"/>
</g>
<g opacity="0.4">
<path d="M273.707 105.941C275.298 105.941 276.628 104.61 276.628 103.019C276.628 101.429 275.298 100.098 273.707 100.098C272.116 100.098 270.814 101.429 270.814 103.019C270.814 104.61 272.145 105.941 273.707 105.941Z" fill="#E30004"/>
<path d="M271.626 104.408C271.163 103.743 271.018 102.731 271.278 101.95C271.51 101.227 272.117 100.561 273.13 100.185C271.799 100.446 270.758 101.631 270.758 103.049C270.758 104.64 272.088 105.97 273.65 105.97C275.212 105.97 276.572 104.64 276.572 103.049C276.572 102.644 276.485 102.268 276.34 101.892C276.572 102.528 276.456 103.598 275.877 104.321C274.836 105.652 272.609 105.768 271.597 104.408H271.626Z" fill="#B20003"/>
<path d="M275.01 100.734C274.2 100.271 272.899 100.358 272.118 101.255C271.655 101.804 271.51 102.528 271.8 103.135C272.031 103.656 272.552 104.061 273.188 104.205C274.403 104.465 276.312 103.713 275.936 101.978C275.82 101.486 275.502 101.024 275.01 100.763V100.734Z" fill="#FF0004"/>
<path d="M274.43 101.227C274.691 101.603 274.951 101.95 275.124 102.412C275.269 102.904 275.269 103.396 275.356 103.917C275.414 104.293 275.645 104.495 275.848 103.945C276.253 102.904 275.703 101.313 274.691 100.851C274.401 100.706 274.141 100.851 274.459 101.227H274.43Z" fill="#FF3336"/>
<path d="M271.57 102.817C271.454 103.164 271.512 103.656 271.772 103.945C272.003 104.234 272.524 104.263 272.35 103.656C272.322 103.54 272.264 103.395 272.206 103.28C272.148 103.135 272.148 102.99 272.119 102.846C272.032 102.47 271.714 102.441 271.598 102.846L271.57 102.817Z" fill="#FF3336"/>
</g>
<g opacity="0.4">
<path d="M141.177 176.284C142.767 176.284 144.098 174.954 144.098 173.363C144.098 171.772 142.767 170.441 141.177 170.441C139.586 170.441 138.284 171.772 138.284 173.363C138.284 174.954 139.615 176.284 141.177 176.284Z" fill="#E30004"/>
<path d="M139.124 174.751C138.661 174.086 138.516 173.074 138.776 172.293C139.008 171.57 139.615 170.904 140.628 170.528C139.297 170.789 138.256 171.975 138.256 173.392C138.256 174.983 139.586 176.313 141.148 176.313C142.71 176.313 144.07 174.983 144.07 173.392C144.07 172.987 143.983 172.611 143.838 172.235C144.07 172.871 143.954 173.941 143.375 174.664C142.334 175.995 140.107 176.111 139.095 174.751H139.124Z" fill="#B20003"/>
<path d="M142.508 171.049C141.698 170.586 140.397 170.673 139.616 171.569C139.153 172.119 139.008 172.842 139.298 173.449C139.529 173.97 140.05 174.375 140.686 174.52C141.901 174.78 143.81 174.028 143.434 172.292C143.318 171.801 143 171.338 142.508 171.078V171.049Z" fill="#FF0004"/>
<path d="M141.928 171.57C142.189 171.946 142.449 172.293 142.623 172.755C142.767 173.247 142.767 173.739 142.854 174.26C142.912 174.636 143.143 174.838 143.346 174.288C143.751 173.247 143.201 171.656 142.189 171.194C141.899 171.049 141.639 171.194 141.957 171.57H141.928Z" fill="#FF3336"/>
<path d="M139.036 173.16C138.921 173.507 138.978 173.999 139.239 174.288C139.47 174.577 139.991 174.606 139.817 173.999C139.788 173.883 139.73 173.739 139.673 173.623C139.615 173.478 139.615 173.334 139.586 173.189C139.499 172.813 139.181 172.784 139.065 173.189L139.036 173.16Z" fill="#FF3336"/>
</g>
<g opacity="0.4">
<path d="M193.963 111.471C195.554 111.471 196.884 110.141 196.884 108.55C196.884 106.959 195.554 105.628 193.963 105.628C192.372 105.628 191.07 106.959 191.07 108.55C191.07 110.141 192.401 111.471 193.963 111.471Z" fill="#E30004"/>
<path d="M191.881 109.938C191.419 109.273 191.274 108.261 191.534 107.48C191.766 106.757 192.373 106.091 193.385 105.715C192.055 105.976 191.014 107.162 191.014 108.579C191.014 110.17 192.344 111.5 193.906 111.5C195.468 111.5 196.827 110.17 196.827 108.579C196.827 108.174 196.741 107.798 196.596 107.422C196.827 108.058 196.712 109.128 196.133 109.851C195.092 111.182 192.865 111.298 191.852 109.938H191.881Z" fill="#B20003"/>
<path d="M195.266 106.265C194.456 105.802 193.155 105.889 192.374 106.785C191.911 107.335 191.766 108.058 192.055 108.665C192.287 109.186 192.808 109.591 193.444 109.735C194.659 109.996 196.568 109.244 196.192 107.508C196.076 107.017 195.758 106.554 195.266 106.293V106.265Z" fill="#FF0004"/>
<path d="M194.686 106.757C194.946 107.133 195.207 107.48 195.38 107.943C195.525 108.434 195.525 108.926 195.612 109.447C195.67 109.823 195.901 110.025 196.103 109.475C196.508 108.434 195.959 106.843 194.946 106.381C194.657 106.236 194.397 106.381 194.715 106.757H194.686Z" fill="#FF3336"/>
<path d="M191.825 108.347C191.71 108.694 191.768 109.186 192.028 109.475C192.259 109.764 192.78 109.793 192.606 109.186C192.577 109.07 192.52 108.926 192.462 108.81C192.404 108.665 192.404 108.521 192.375 108.376C192.288 108 191.97 107.971 191.854 108.376L191.825 108.347Z" fill="#FF3336"/>
</g>
<g opacity="0.4">
<path d="M139.415 113.317C141.006 113.317 142.336 111.986 142.336 110.395C142.336 108.804 141.006 107.474 139.415 107.474C137.824 107.474 136.522 108.804 136.522 110.395C136.522 111.986 137.853 113.317 139.415 113.317Z" fill="#E30004"/>
<path d="M137.362 111.784C136.899 111.118 136.754 110.106 137.015 109.325C137.246 108.602 137.854 107.937 138.866 107.561C137.535 107.821 136.494 109.007 136.494 110.424C136.494 112.015 137.825 113.346 139.387 113.346C140.948 113.346 142.308 112.015 142.308 110.424C142.308 110.019 142.221 109.643 142.076 109.267C142.308 109.904 142.192 110.974 141.614 111.697C140.572 113.027 138.345 113.143 137.333 111.784H137.362Z" fill="#B20003"/>
<path d="M140.718 108.11C139.908 107.647 138.607 107.734 137.826 108.631C137.363 109.18 137.218 109.903 137.508 110.511C137.739 111.031 138.26 111.436 138.896 111.581C140.111 111.841 142.02 111.089 141.644 109.354C141.528 108.862 141.21 108.399 140.718 108.139V108.11Z" fill="#FF0004"/>
<path d="M140.139 108.602C140.4 108.978 140.66 109.325 140.833 109.788C140.978 110.28 140.978 110.771 141.065 111.292C141.123 111.668 141.354 111.87 141.557 111.321C141.962 110.28 141.412 108.689 140.4 108.226C140.11 108.081 139.85 108.226 140.168 108.602H140.139Z" fill="#FF3336"/>
<path d="M137.275 110.193C137.159 110.54 137.217 111.031 137.477 111.321C137.708 111.61 138.229 111.639 138.056 111.031C138.027 110.916 137.969 110.771 137.911 110.655C137.853 110.511 137.853 110.366 137.824 110.221C137.737 109.845 137.419 109.816 137.304 110.221L137.275 110.193Z" fill="#FF3336"/>
</g>
<g opacity="0.4">
<path d="M170.855 150.658C174.268 150.658 177.103 147.823 177.103 144.41C177.103 140.997 174.268 138.163 170.855 138.163C167.442 138.163 164.607 140.997 164.607 144.41C164.607 147.823 167.442 150.658 170.855 150.658Z" fill="#E30004"/>
<path d="M166.401 147.361C165.388 145.972 165.128 143.774 165.678 142.039C166.198 140.477 167.471 139.03 169.669 138.25C166.806 138.828 164.607 141.373 164.607 144.381C164.607 147.794 167.442 150.629 170.855 150.629C174.268 150.629 177.103 147.794 177.103 144.381C177.103 143.514 176.929 142.675 176.582 141.923C177.074 143.311 176.842 145.596 175.599 147.187C173.342 150.05 168.541 150.34 166.401 147.361Z" fill="#B20003"/>
<path d="M173.66 139.435C171.925 138.481 169.119 138.626 167.442 140.534C166.429 141.691 166.14 143.253 166.747 144.555C167.268 145.683 168.367 146.551 169.698 146.84C172.301 147.418 176.408 145.77 175.627 142.039C175.396 140.968 174.672 139.985 173.66 139.435Z" fill="#FF0004"/>
<path d="M172.417 140.534C172.995 141.315 173.573 142.067 173.892 143.08C174.21 144.121 174.239 145.22 174.354 146.29C174.441 147.1 174.991 147.534 175.454 146.377C176.321 144.121 175.135 140.737 172.937 139.725C172.301 139.435 171.78 139.725 172.417 140.534Z" fill="#FF3336"/>
<path d="M166.228 143.948C165.968 144.729 166.141 145.77 166.633 146.377C167.125 146.985 168.281 147.071 167.877 145.741C167.79 145.452 167.674 145.191 167.587 144.931C167.501 144.613 167.443 144.295 167.385 143.977C167.211 143.196 166.517 143.109 166.228 143.977V143.948Z" fill="#FF3336"/>
</g>
<g opacity="0.4">
<path d="M129.522 218.745C132.935 218.745 135.77 215.91 135.77 212.497C135.77 209.084 132.935 206.25 129.522 206.25C126.109 206.25 123.274 209.084 123.274 212.497C123.274 215.91 126.109 218.745 129.522 218.745Z" fill="#E30004"/>
<path d="M125.068 215.447C124.055 214.059 123.795 211.861 124.345 210.125C124.865 208.564 126.138 207.117 128.336 206.336C125.473 206.915 123.274 209.46 123.274 212.468C123.274 215.881 126.109 218.716 129.522 218.716C132.935 218.716 135.77 215.881 135.77 212.468C135.77 211.601 135.596 210.762 135.249 210.01C135.741 211.398 135.509 213.683 134.266 215.274C132.009 218.137 127.208 218.427 125.068 215.447Z" fill="#B20003"/>
<path d="M132.327 207.522C130.592 206.568 127.786 206.712 126.109 208.621C125.096 209.778 124.807 211.34 125.414 212.642C125.935 213.77 127.034 214.638 128.365 214.927C130.968 215.505 135.075 213.857 134.294 210.125C134.063 209.055 133.339 208.072 132.327 207.522Z" fill="#FF0004"/>
<path d="M131.084 208.621C131.662 209.402 132.24 210.154 132.559 211.167C132.877 212.208 132.906 213.307 133.021 214.377C133.108 215.187 133.658 215.621 134.121 214.464C134.988 212.208 133.802 208.824 131.604 207.812C130.968 207.522 130.447 207.812 131.084 208.621Z" fill="#FF3336"/>
<path d="M124.895 212.034C124.635 212.815 124.808 213.857 125.3 214.464C125.792 215.071 126.948 215.158 126.544 213.828C126.457 213.538 126.341 213.278 126.254 213.018C126.168 212.7 126.11 212.381 126.052 212.063C125.878 211.282 125.184 211.196 124.895 212.063V212.034Z" fill="#FF3336"/>
</g>
<g opacity="0.4">
<path d="M223.613 128.602C227.026 128.602 229.86 125.768 229.86 122.355C229.86 118.941 227.026 116.107 223.613 116.107C220.2 116.107 217.365 118.941 217.365 122.355C217.365 125.768 220.2 128.602 223.613 128.602Z" fill="#E30004"/>
<path d="M219.159 125.305C218.146 123.917 217.886 121.718 218.435 119.983C218.956 118.421 220.229 116.975 222.427 116.194C219.563 116.772 217.365 119.318 217.365 122.326C217.365 125.739 220.2 128.573 223.613 128.573C227.026 128.573 229.86 125.739 229.86 122.326C229.86 121.458 229.687 120.619 229.34 119.867C229.831 121.256 229.6 123.541 228.356 125.131C226.1 127.995 221.299 128.284 219.159 125.305Z" fill="#B20003"/>
<path d="M226.418 117.38C224.683 116.425 221.877 116.57 220.199 118.479C219.187 119.636 218.898 121.198 219.505 122.499C220.026 123.627 221.125 124.495 222.455 124.784C225.059 125.363 229.166 123.714 228.385 119.983C228.153 118.913 227.43 117.929 226.418 117.38Z" fill="#FF0004"/>
<path d="M225.174 118.479C225.753 119.26 226.331 120.012 226.649 121.024C226.968 122.065 226.997 123.164 227.112 124.235C227.199 125.045 227.749 125.478 228.211 124.321C229.079 122.065 227.893 118.681 225.695 117.669C225.059 117.38 224.538 117.669 225.174 118.479Z" fill="#FF3336"/>
<path d="M218.986 121.892C218.725 122.673 218.899 123.714 219.391 124.321C219.882 124.929 221.039 125.016 220.634 123.685C220.548 123.396 220.432 123.135 220.345 122.875C220.258 122.557 220.2 122.239 220.143 121.921C219.969 121.14 219.275 121.053 218.986 121.921V121.892Z" fill="#FF3336"/>
</g>
<g opacity="0.4">
<path d="M257.887 166.174C268.907 166.174 278.134 156.977 278.134 145.928C278.134 134.879 268.936 125.681 257.887 125.681C246.838 125.681 237.641 134.879 237.641 145.928C237.641 156.977 246.838 166.174 257.887 166.174Z" fill="#E30004"/>
<path d="M243.511 155.501C240.242 150.96 239.346 143.902 241.168 138.32C242.816 133.258 246.924 128.631 254.068 126.056C244.812 127.879 237.668 136.18 237.668 145.927C237.668 156.976 246.866 166.174 257.915 166.174C268.964 166.174 278.161 156.976 278.161 145.927C278.161 143.122 277.554 140.432 276.484 137.973C278.075 142.456 277.294 149.861 273.302 154.951C266.042 164.265 250.452 165.133 243.54 155.472L243.511 155.501Z" fill="#B20003"/>
</g>
<g opacity="0.4">
<path d="M166.689 206.538C177.709 206.538 186.936 197.341 186.936 186.292C186.936 175.243 177.738 166.045 166.689 166.045C155.64 166.045 146.442 175.243 146.442 186.292C146.442 197.341 155.669 206.538 166.689 206.538Z" fill="#E30004"/>
<path d="M152.314 195.865C149.046 191.324 148.149 184.267 149.971 178.684C151.62 173.623 155.727 168.995 162.871 166.421C153.616 168.243 146.442 176.544 146.442 186.291C146.442 197.34 155.669 206.538 166.689 206.538C177.709 206.538 186.936 197.34 186.936 186.291C186.936 183.486 186.328 180.796 185.258 178.337C186.849 182.821 186.068 190.225 182.077 195.316C174.817 204.629 159.227 205.497 152.314 195.865Z" fill="#B20003"/>
</g>
</g>
<path d="M576.967 55.4194H584.359C586.167 55.4194 587.575 55.8754 588.583 56.7874C589.591 57.6834 590.095 58.9474 590.095 60.5794C590.095 62.2114 589.591 63.4834 588.583 64.3954C587.575 65.3074 586.167 65.7634 584.359 65.7634H580.063V72.3394H576.967V55.4194ZM583.975 63.3874C586.103 63.3874 587.167 62.4594 587.167 60.6034C587.167 59.6594 586.903 58.9634 586.375 58.5154C585.847 58.0514 585.047 57.8194 583.975 57.8194H580.063V63.3874H583.975ZM606.178 55.4194H608.602V72.3394H605.866V61.1554L601.402 69.6034H599.338L594.85 61.2754L594.874 72.3394H592.138V55.4194H594.586L600.394 66.4834L606.178 55.4194ZM619.23 69.8434H622.902V72.3394H612.462V69.8434H616.134V58.9474L613.23 60.6994L612.006 58.4434L617.022 55.4194H619.23V69.8434ZM630.597 72.5554C628.597 72.5554 627.069 71.8194 626.013 70.3474C624.957 68.8594 624.429 66.6994 624.429 63.8674C624.429 61.0674 624.957 58.9314 626.013 57.4594C627.069 55.9874 628.597 55.2514 630.597 55.2514C632.597 55.2514 634.125 55.9874 635.181 57.4594C636.237 58.9314 636.765 61.0674 636.765 63.8674C636.765 66.6834 636.237 68.8354 635.181 70.3234C634.125 71.8114 632.597 72.5554 630.597 72.5554ZM630.597 70.1314C631.685 70.1314 632.477 69.6354 632.973 68.6434C633.469 67.6354 633.717 66.0434 633.717 63.8674C633.717 61.7074 633.469 60.1394 632.973 59.1634C632.477 58.1714 631.685 57.6754 630.597 57.6754C629.509 57.6754 628.717 58.1714 628.221 59.1634C627.725 60.1394 627.477 61.7074 627.477 63.8674C627.477 66.0434 627.725 67.6354 628.221 68.6434C628.717 69.6354 629.509 70.1314 630.597 70.1314ZM588.199 85.3794V87.6834L579.127 91.4754L588.199 95.2674V97.5714L576.487 92.6034V90.3234L588.199 85.3794ZM598.317 95.8434H601.989V98.3394H591.549V95.8434H595.221V84.9474L592.317 86.6994L591.093 84.4434L596.109 81.4194H598.317V95.8434ZM609.684 98.5554C607.684 98.5554 606.156 97.8194 605.1 96.3474C604.044 94.8594 603.516 92.6994 603.516 89.8674C603.516 87.0674 604.044 84.9314 605.1 83.4594C606.156 81.9874 607.684 81.2514 609.684 81.2514C611.684 81.2514 613.212 81.9874 614.268 83.4594C615.324 84.9314 615.852 87.0674 615.852 89.8674C615.852 92.6834 615.324 94.8354 614.268 96.3234C613.212 97.8114 611.684 98.5554 609.684 98.5554ZM609.684 96.1314C610.772 96.1314 611.564 95.6354 612.06 94.6434C612.556 93.6354 612.804 92.0434 612.804 89.8674C612.804 87.7074 612.556 86.1394 612.06 85.1634C611.564 84.1714 610.772 83.6754 609.684 83.6754C608.596 83.6754 607.804 84.1714 607.308 85.1634C606.812 86.1394 606.564 87.7074 606.564 89.8674C606.564 92.0434 606.812 93.6354 607.308 94.6434C607.804 95.6354 608.596 96.1314 609.684 96.1314ZM634.286 86.6034V98.3394H631.358V96.5394C630.99 97.1794 630.494 97.6754 629.87 98.0274C629.246 98.3634 628.542 98.5314 627.758 98.5314C627.262 98.5314 626.822 98.4594 626.438 98.3154V102.659H623.438V86.6034H626.438V93.7074C626.438 94.5394 626.606 95.1554 626.942 95.5554C627.278 95.9554 627.806 96.1554 628.526 96.1554C629.358 96.1554 630.022 95.8834 630.518 95.3394C631.03 94.7794 631.286 94.0434 631.286 93.1314V86.6034H634.286ZM650.633 86.3154C651.961 86.3154 652.953 86.7154 653.609 87.5154C654.265 88.2994 654.593 89.5074 654.593 91.1394V98.3394H651.593V91.2594C651.593 90.3634 651.441 89.7154 651.137 89.3154C650.833 88.8994 650.345 88.6914 649.673 88.6914C648.873 88.6914 648.249 88.9634 647.801 89.5074C647.353 90.0514 647.129 90.8114 647.129 91.7874V98.3394H644.129V91.2594C644.129 90.3634 643.977 89.7154 643.673 89.3154C643.385 88.8994 642.897 88.6914 642.209 88.6914C641.425 88.6914 640.809 88.9634 640.361 89.5074C639.913 90.0514 639.689 90.8114 639.689 91.7874V98.3394H636.689V86.6034H639.617V88.2594C639.969 87.6194 640.457 87.1394 641.081 86.8194C641.705 86.4834 642.417 86.3154 643.217 86.3154C644.993 86.3154 646.169 87.0514 646.745 88.5234C647.113 87.8354 647.641 87.2994 648.329 86.9154C649.017 86.5154 649.785 86.3154 650.633 86.3154Z" fill="#53515E"/>
<path d="M553.143 183.339V98.8394" stroke="#E30004" stroke-width="2"/>
<path d="M376.642 130.339L552.642 199.339" stroke="#FF8688" stroke-width="2"/>
<path d="M635.115 163.124H638.013V179.339H635.115V172.301H626.812V179.339H623.891V163.124H626.812V169.909H635.115V163.124ZM650.884 168.092V179.339H648.078V177.614C647.725 178.228 647.25 178.703 646.652 179.04C646.054 179.362 645.379 179.523 644.628 179.523C641.868 179.523 640.488 177.975 640.488 174.877V168.092H643.363V174.9C643.363 175.698 643.524 176.288 643.846 176.671C644.168 177.055 644.674 177.246 645.364 177.246C646.161 177.246 646.798 176.986 647.273 176.464C647.764 175.928 648.009 175.222 648.009 174.348V168.092H650.884ZM666.549 167.816C667.822 167.816 668.773 168.2 669.401 168.966C670.03 169.718 670.344 170.875 670.344 172.439V179.339H667.469V172.554C667.469 171.696 667.324 171.075 667.032 170.691C666.741 170.293 666.273 170.093 665.629 170.093C664.863 170.093 664.265 170.354 663.835 170.875C663.406 171.397 663.191 172.125 663.191 173.06V179.339H660.316V172.554C660.316 171.696 660.171 171.075 659.879 170.691C659.603 170.293 659.136 170.093 658.476 170.093C657.725 170.093 657.135 170.354 656.705 170.875C656.276 171.397 656.061 172.125 656.061 173.06V179.339H653.186V168.092H655.992V169.679C656.33 169.066 656.797 168.606 657.395 168.299C657.993 167.977 658.676 167.816 659.442 167.816C661.144 167.816 662.271 168.522 662.823 169.932C663.176 169.273 663.682 168.759 664.341 168.391C665.001 168.008 665.737 167.816 666.549 167.816ZM677.406 167.816C678.986 167.816 680.159 168.2 680.925 168.966C681.692 169.733 682.075 170.914 682.075 172.508V179.339H679.338V177.614C679.078 178.212 678.664 178.68 678.096 179.017C677.544 179.355 676.9 179.523 676.164 179.523C675.413 179.523 674.731 179.37 674.117 179.063C673.504 178.757 673.021 178.335 672.668 177.798C672.316 177.262 672.139 176.664 672.139 176.004C672.139 175.176 672.346 174.525 672.76 174.049C673.19 173.574 673.88 173.229 674.83 173.014C675.781 172.8 677.092 172.692 678.763 172.692H679.338V172.163C679.338 171.397 679.17 170.845 678.832 170.507C678.51 170.17 677.966 170.001 677.199 170.001C676.601 170.001 675.973 170.109 675.313 170.323C674.669 170.523 674.033 170.806 673.404 171.174L672.599 169.196C673.228 168.798 673.987 168.468 674.876 168.207C675.766 167.947 676.609 167.816 677.406 167.816ZM676.739 177.453C677.506 177.453 678.127 177.2 678.602 176.694C679.093 176.173 679.338 175.506 679.338 174.693V174.21H678.924C677.897 174.21 677.1 174.256 676.532 174.348C675.965 174.44 675.559 174.601 675.313 174.831C675.068 175.061 674.945 175.376 674.945 175.774C674.945 176.265 675.114 176.671 675.451 176.993C675.789 177.3 676.218 177.453 676.739 177.453ZM690.839 167.816C692.189 167.816 693.193 168.2 693.852 168.966C694.512 169.733 694.841 170.891 694.841 172.439V179.339H691.966V172.6C691.966 171.726 691.798 171.09 691.46 170.691C691.138 170.293 690.625 170.093 689.919 170.093C689.091 170.093 688.424 170.354 687.918 170.875C687.428 171.397 687.182 172.094 687.182 172.968V179.339H684.307V168.092H687.113V169.771C687.497 169.143 688.01 168.66 688.654 168.322C689.298 167.985 690.027 167.816 690.839 167.816ZM714.103 163.124H717.001V179.339H714.103V172.301H705.8V179.339H702.879V163.124H705.8V169.909H714.103V163.124ZM724.375 167.816C725.954 167.816 727.127 168.2 727.894 168.966C728.661 169.733 729.044 170.914 729.044 172.508V179.339H726.307V177.614C726.046 178.212 725.632 178.68 725.065 179.017C724.513 179.355 723.869 179.523 723.133 179.523C722.382 179.523 721.699 179.37 721.086 179.063C720.473 178.757 719.99 178.335 719.637 177.798C719.284 177.262 719.108 176.664 719.108 176.004C719.108 175.176 719.315 174.525 719.729 174.049C720.158 173.574 720.848 173.229 721.799 173.014C722.75 172.8 724.061 172.692 725.732 172.692H726.307V172.163C726.307 171.397 726.138 170.845 725.801 170.507C725.479 170.17 724.935 170.001 724.168 170.001C723.57 170.001 722.941 170.109 722.282 170.323C721.638 170.523 721.002 170.806 720.373 171.174L719.568 169.196C720.197 168.798 720.956 168.468 721.845 168.207C722.734 167.947 723.578 167.816 724.375 167.816ZM723.708 177.453C724.475 177.453 725.096 177.2 725.571 176.694C726.062 176.173 726.307 175.506 726.307 174.693V174.21H725.893C724.866 174.21 724.068 174.256 723.501 174.348C722.934 174.44 722.527 174.601 722.282 174.831C722.037 175.061 721.914 175.376 721.914 175.774C721.914 176.265 722.083 176.671 722.42 176.993C722.757 177.3 723.187 177.453 723.708 177.453ZM731.276 179.339V168.092H734.151V179.339H731.276ZM731.115 162.871H734.289V165.7H731.115V162.871ZM743.832 170.208L742.153 170.369C740.251 170.569 739.301 171.535 739.301 173.267V179.339H736.426V168.092H739.163V170.07C739.745 168.721 740.949 167.985 742.774 167.862L743.648 167.793L743.832 170.208ZM629.917 197.966C630.929 197.966 631.818 198.189 632.585 198.633C633.367 199.063 633.965 199.668 634.379 200.45C634.808 201.232 635.023 202.129 635.023 203.141C635.023 204.215 634.777 205.158 634.287 205.97C633.796 206.783 633.098 207.412 632.194 207.856C631.304 208.301 630.254 208.523 629.043 208.523C628.031 208.523 627.026 208.355 626.03 208.017C625.048 207.665 624.236 207.205 623.592 206.637L624.581 204.475C626.053 205.595 627.555 206.154 629.089 206.154C630.101 206.154 630.875 205.901 631.412 205.395C631.948 204.889 632.217 204.169 632.217 203.233C632.217 202.329 631.941 201.616 631.389 201.094C630.852 200.558 630.116 200.289 629.181 200.289C628.552 200.289 627.954 200.412 627.387 200.657C626.835 200.887 626.336 201.225 625.892 201.669H624.121V192.124H634.287V194.424H627.019V198.794C627.801 198.242 628.767 197.966 629.917 197.966ZM642.144 208.546C640.227 208.546 638.763 207.841 637.751 206.43C636.739 205.004 636.233 202.934 636.233 200.22C636.233 197.537 636.739 195.49 637.751 194.079C638.763 192.669 640.227 191.963 642.144 191.963C644.06 191.963 645.525 192.669 646.537 194.079C647.549 195.49 648.055 197.537 648.055 200.22C648.055 202.919 647.549 204.981 646.537 206.407C645.525 207.833 644.06 208.546 642.144 208.546ZM642.144 206.223C643.186 206.223 643.945 205.748 644.421 204.797C644.896 203.831 645.134 202.306 645.134 200.22C645.134 198.15 644.896 196.648 644.421 195.712C643.945 194.762 643.186 194.286 642.144 194.286C641.101 194.286 640.342 194.762 639.867 195.712C639.391 196.648 639.154 198.15 639.154 200.22C639.154 202.306 639.391 203.831 639.867 204.797C640.342 205.748 641.101 206.223 642.144 206.223ZM649.909 203.325V201.048H656.763V203.325H649.909ZM658.892 192.124H670.185V194.332L662.825 208.339H659.674L667.011 194.516H658.892V192.124ZM677.628 208.546C675.712 208.546 674.247 207.841 673.235 206.43C672.223 205.004 671.717 202.934 671.717 200.22C671.717 197.537 672.223 195.49 673.235 194.079C674.247 192.669 675.712 191.963 677.628 191.963C679.545 191.963 681.009 192.669 682.021 194.079C683.033 195.49 683.539 197.537 683.539 200.22C683.539 202.919 683.033 204.981 682.021 206.407C681.009 207.833 679.545 208.546 677.628 208.546ZM677.628 206.223C678.671 206.223 679.43 205.748 679.905 204.797C680.381 203.831 680.618 202.306 680.618 200.22C680.618 198.15 680.381 196.648 679.905 195.712C679.43 194.762 678.671 194.286 677.628 194.286C676.586 194.286 675.827 194.762 675.351 195.712C674.876 196.648 674.638 198.15 674.638 200.22C674.638 202.306 674.876 203.831 675.351 204.797C675.827 205.748 676.586 206.223 677.628 206.223ZM701.205 197.092V208.339H698.399V206.614C698.047 207.228 697.571 207.703 696.973 208.04C696.375 208.362 695.701 208.523 694.949 208.523C694.474 208.523 694.052 208.454 693.684 208.316V212.479H690.809V197.092H693.684V203.9C693.684 204.698 693.845 205.288 694.167 205.671C694.489 206.055 694.995 206.246 695.685 206.246C696.483 206.246 697.119 205.986 697.594 205.464C698.085 204.928 698.33 204.222 698.33 203.348V197.092H701.205ZM716.871 196.816C718.143 196.816 719.094 197.2 719.723 197.966C720.351 198.718 720.666 199.875 720.666 201.439V208.339H717.791V201.554C717.791 200.696 717.645 200.075 717.354 199.691C717.062 199.293 716.595 199.093 715.951 199.093C715.184 199.093 714.586 199.354 714.157 199.875C713.727 200.397 713.513 201.125 713.513 202.06V208.339H710.638V201.554C710.638 200.696 710.492 200.075 710.201 199.691C709.925 199.293 709.457 199.093 708.798 199.093C708.046 199.093 707.456 199.354 707.027 199.875C706.597 200.397 706.383 201.125 706.383 202.06V208.339H703.508V197.092H706.314V198.679C706.651 198.066 707.119 197.606 707.717 197.299C708.315 196.977 708.997 196.816 709.764 196.816C711.466 196.816 712.593 197.522 713.145 198.932C713.497 198.273 714.003 197.759 714.663 197.391C715.322 197.008 716.058 196.816 716.871 196.816Z" fill="white"/>
<path d="M388.967 88.4194H396.359C398.167 88.4194 399.575 88.8754 400.583 89.7874C401.591 90.6834 402.095 91.9474 402.095 93.5794C402.095 95.2114 401.591 96.4834 400.583 97.3954C399.575 98.3074 398.167 98.7634 396.359 98.7634H392.063V105.339H388.967V88.4194ZM395.975 96.3874C398.103 96.3874 399.167 95.4594 399.167 93.6034C399.167 92.6594 398.903 91.9634 398.375 91.5154C397.847 91.0514 397.047 90.8194 395.975 90.8194H392.063V96.3874H395.975ZM418.178 88.4194H420.602V105.339H417.866V94.1554L413.402 102.603H411.338L406.85 94.2754L406.874 105.339H404.138V88.4194H406.586L412.394 99.4834L418.178 88.4194ZM434.854 102.843V105.339H423.478V103.059L429.238 96.8674C429.91 96.1314 430.398 95.4594 430.702 94.8514C431.022 94.2274 431.182 93.6114 431.182 93.0034C431.182 92.2354 430.958 91.6594 430.51 91.2754C430.078 90.8754 429.438 90.6754 428.59 90.6754C427.07 90.6754 425.542 91.2594 424.006 92.4274L422.974 90.1714C423.646 89.5794 424.502 89.1074 425.542 88.7554C426.598 88.3874 427.654 88.2034 428.71 88.2034C430.406 88.2034 431.75 88.6194 432.742 89.4514C433.734 90.2834 434.23 91.4034 434.23 92.8114C434.23 93.7874 434.022 94.7074 433.606 95.5714C433.19 96.4194 432.486 97.3714 431.494 98.4274L427.342 102.843H434.854ZM436.716 102.027H440.076V105.339H436.716V102.027ZM448.765 94.5154C449.821 94.5154 450.749 94.7474 451.549 95.2114C452.365 95.6594 452.989 96.2914 453.421 97.1074C453.869 97.9234 454.093 98.8594 454.093 99.9154C454.093 101.035 453.837 102.019 453.325 102.867C452.813 103.715 452.085 104.371 451.141 104.835C450.213 105.299 449.117 105.531 447.853 105.531C446.797 105.531 445.749 105.355 444.709 105.003C443.685 104.635 442.837 104.155 442.165 103.563L443.197 101.307C444.733 102.475 446.301 103.059 447.901 103.059C448.957 103.059 449.765 102.795 450.325 102.267C450.885 101.739 451.165 100.987 451.165 100.011C451.165 99.0674 450.877 98.3234 450.301 97.7794C449.741 97.2194 448.973 96.9394 447.997 96.9394C447.341 96.9394 446.717 97.0674 446.125 97.3234C445.549 97.5634 445.029 97.9154 444.565 98.3794H442.717V88.4194H453.325V90.8194H445.741V95.3794C446.557 94.8034 447.565 94.5154 448.765 94.5154ZM400.199 118.379V120.683L391.127 124.475L400.199 128.267V130.571L388.487 125.603V123.323L400.199 118.379ZM413.941 128.843V131.339H402.565V129.059L408.325 122.867C408.997 122.131 409.485 121.459 409.789 120.851C410.109 120.227 410.269 119.611 410.269 119.003C410.269 118.235 410.045 117.659 409.597 117.275C409.165 116.875 408.525 116.675 407.677 116.675C406.157 116.675 404.629 117.259 403.093 118.427L402.061 116.171C402.733 115.579 403.589 115.107 404.629 114.755C405.685 114.387 406.741 114.203 407.797 114.203C409.493 114.203 410.837 114.619 411.829 115.451C412.821 116.283 413.317 117.403 413.317 118.811C413.317 119.787 413.109 120.707 412.693 121.571C412.277 122.419 411.573 123.371 410.581 124.427L406.429 128.843H413.941ZM415.803 128.027H419.163V131.339H415.803V128.027ZM427.852 120.515C428.908 120.515 429.836 120.747 430.636 121.211C431.452 121.659 432.076 122.291 432.508 123.107C432.956 123.923 433.18 124.859 433.18 125.915C433.18 127.035 432.924 128.019 432.412 128.867C431.9 129.715 431.172 130.371 430.228 130.835C429.3 131.299 428.204 131.531 426.94 131.531C425.884 131.531 424.836 131.355 423.796 131.003C422.772 130.635 421.924 130.155 421.252 129.563L422.284 127.307C423.82 128.475 425.388 129.059 426.988 129.059C428.044 129.059 428.852 128.795 429.412 128.267C429.972 127.739 430.252 126.987 430.252 126.011C430.252 125.067 429.964 124.323 429.388 123.779C428.828 123.219 428.06 122.939 427.084 122.939C426.428 122.939 425.804 123.067 425.212 123.323C424.636 123.563 424.116 123.915 423.652 124.379H421.804V114.419H432.412V116.819H424.828V121.379C425.644 120.803 426.652 120.515 427.852 120.515ZM451.543 119.603V131.339H448.615V129.539C448.247 130.179 447.751 130.675 447.127 131.027C446.503 131.363 445.799 131.531 445.015 131.531C444.519 131.531 444.079 131.459 443.695 131.315V135.659H440.695V119.603H443.695V126.707C443.695 127.539 443.863 128.155 444.199 128.555C444.535 128.955 445.063 129.155 445.783 129.155C446.615 129.155 447.279 128.883 447.775 128.339C448.287 127.779 448.543 127.043 448.543 126.131V119.603H451.543ZM467.889 119.315C469.217 119.315 470.209 119.715 470.865 120.515C471.521 121.299 471.849 122.507 471.849 124.139V131.339H468.849V124.259C468.849 123.363 468.697 122.715 468.393 122.315C468.089 121.899 467.601 121.691 466.929 121.691C466.129 121.691 465.505 121.963 465.057 122.507C464.609 123.051 464.385 123.811 464.385 124.787V131.339H461.385V124.259C461.385 123.363 461.233 122.715 460.929 122.315C460.641 121.899 460.153 121.691 459.465 121.691C458.681 121.691 458.065 121.963 457.617 122.507C457.169 123.051 456.945 123.811 456.945 124.787V131.339H453.945V119.603H456.873V121.259C457.225 120.619 457.713 120.139 458.337 119.819C458.961 119.483 459.673 119.315 460.473 119.315C462.249 119.315 463.425 120.051 464.001 121.523C464.369 120.835 464.897 120.299 465.585 119.915C466.273 119.515 467.041 119.315 467.889 119.315Z" fill="#53515E"/>
<path d="M552.39 205.834C555.803 205.834 558.638 203 558.638 199.587C558.638 196.174 555.803 193.339 552.39 193.339C548.977 193.339 546.143 196.174 546.143 199.587C546.143 203 548.977 205.834 552.39 205.834Z" fill="#FF8688"/>
<path d="M547.964 202.537C546.952 201.149 546.692 198.951 547.241 197.215C547.762 195.653 549.034 194.207 551.233 193.426C548.369 194.005 546.171 196.55 546.171 199.558C546.171 202.971 549.005 205.806 552.418 205.806C555.832 205.806 558.666 202.971 558.666 199.558C558.666 198.69 558.492 197.852 558.145 197.1C558.637 198.488 558.406 200.773 557.162 202.364C554.906 205.227 550.105 205.516 547.964 202.537Z" fill="#FFDEDF"/>
<path d="M376.39 135.834C379.803 135.834 382.638 133 382.638 129.587C382.638 126.174 379.803 123.339 376.39 123.339C372.977 123.339 370.143 126.174 370.143 129.587C370.143 133 372.977 135.834 376.39 135.834Z" fill="#FF8688"/>
<path d="M371.964 132.537C370.952 131.149 370.692 128.951 371.241 127.215C371.762 125.653 373.034 124.207 375.233 123.426C372.369 124.005 370.171 126.55 370.171 129.558C370.171 132.971 373.005 135.806 376.418 135.806C379.832 135.806 382.666 132.971 382.666 129.558C382.666 128.69 382.492 127.852 382.145 127.1C382.637 128.488 382.406 130.773 381.162 132.364C378.906 135.227 374.105 135.516 371.964 132.537Z" fill="#FFDEDF"/>
</svg>
